<mxfile host="app.diagrams.net" modified="2023-12-06T15:50:47.148Z" agent="Mozilla/5.0 (Windows NT 10.0; Win64; x64) AppleWebKit/537.36 (KHTML, like Gecko) Chrome/119.0.0.0 Safari/537.36" etag="P5JdJXhiynNpHkUMJ1jc" version="22.1.6" type="github">
  <diagram name="Page-1" id="EOqRFHhUFsaVSlL5GjUp">
    <mxGraphModel dx="1050" dy="577" grid="1" gridSize="10" guides="1" tooltips="1" connect="1" arrows="1" fold="1" page="1" pageScale="1" pageWidth="827" pageHeight="1169" math="0" shadow="0">
      <root>
        <mxCell id="0" />
        <mxCell id="1" parent="0" />
        <mxCell id="B4NFW2_He6Y6FCUZjmSe-1" value="HOME PAGE" style="rounded=1;whiteSpace=wrap;html=1;fillColor=#008a00;strokeColor=#005700;fontColor=#ffffff;" vertex="1" parent="1">
          <mxGeometry x="0.5" y="400" width="120" height="60" as="geometry" />
        </mxCell>
        <mxCell id="B4NFW2_He6Y6FCUZjmSe-2" value="ADDEDIT PAGE" style="rounded=1;whiteSpace=wrap;html=1;fillColor=#008a00;fontColor=#ffffff;strokeColor=#005700;" vertex="1" parent="1">
          <mxGeometry x="707.5" y="400" width="120" height="60" as="geometry" />
        </mxCell>
        <mxCell id="B4NFW2_He6Y6FCUZjmSe-3" value="BOTTOM&lt;br&gt;NAVIGATION&lt;br&gt;BAR" style="rounded=1;whiteSpace=wrap;html=1;fillColor=#008a00;fontColor=#ffffff;strokeColor=#005700;" vertex="1" parent="1">
          <mxGeometry x="40" y="610" width="120" height="60" as="geometry" />
        </mxCell>
        <mxCell id="B4NFW2_He6Y6FCUZjmSe-5" value="TOP&lt;br&gt;FILTER&lt;br&gt;BAR" style="rounded=1;whiteSpace=wrap;html=1;fillColor=#008a00;fontColor=#ffffff;strokeColor=#005700;" vertex="1" parent="1">
          <mxGeometry x="240" y="750" width="120" height="60" as="geometry" />
        </mxCell>
        <mxCell id="B4NFW2_He6Y6FCUZjmSe-6" value="REMINDER&lt;br&gt;BOX" style="rounded=1;whiteSpace=wrap;html=1;fillColor=#008a00;fontColor=#ffffff;strokeColor=#005700;" vertex="1" parent="1">
          <mxGeometry x="440" y="610" width="120" height="60" as="geometry" />
        </mxCell>
        <mxCell id="B4NFW2_He6Y6FCUZjmSe-7" value="JOURNEY&lt;br&gt;BOX" style="rounded=1;whiteSpace=wrap;html=1;fillColor=#008a00;fontColor=#ffffff;strokeColor=#005700;" vertex="1" parent="1">
          <mxGeometry x="640" y="750" width="120" height="60" as="geometry" />
        </mxCell>
        <mxCell id="B4NFW2_He6Y6FCUZjmSe-8" value="JOURNEY&lt;br&gt;REPOSITORY" style="rounded=0;whiteSpace=wrap;html=1;fillColor=#b0e3e6;strokeColor=#0e8088;" vertex="1" parent="1">
          <mxGeometry x="160" y="40" width="120" height="60" as="geometry" />
        </mxCell>
        <mxCell id="B4NFW2_He6Y6FCUZjmSe-9" value="REMINDER&lt;br&gt;REPOSITORY" style="rounded=0;whiteSpace=wrap;html=1;fillColor=#b0e3e6;strokeColor=#0e8088;" vertex="1" parent="1">
          <mxGeometry x="520" y="40" width="120" height="60" as="geometry" />
        </mxCell>
        <mxCell id="B4NFW2_He6Y6FCUZjmSe-26" value="STATE | REPO (FILTER/SORT)" style="edgeStyle=orthogonalEdgeStyle;rounded=0;orthogonalLoop=1;jettySize=auto;html=1;entryX=1;entryY=0.25;entryDx=0;entryDy=0;fillColor=#d80073;strokeColor=#A50040;" edge="1" parent="1" source="B4NFW2_He6Y6FCUZjmSe-10" target="B4NFW2_He6Y6FCUZjmSe-11">
          <mxGeometry x="-0.3728" relative="1" as="geometry">
            <mxPoint as="offset" />
          </mxGeometry>
        </mxCell>
        <mxCell id="B4NFW2_He6Y6FCUZjmSe-28" value="STATE | REPO" style="edgeStyle=orthogonalEdgeStyle;rounded=0;orthogonalLoop=1;jettySize=auto;html=1;entryX=0;entryY=0.25;entryDx=0;entryDy=0;fillColor=#d80073;strokeColor=#A50040;" edge="1" parent="1" source="B4NFW2_He6Y6FCUZjmSe-10" target="B4NFW2_He6Y6FCUZjmSe-13">
          <mxGeometry x="-0.3609" relative="1" as="geometry">
            <mxPoint as="offset" />
          </mxGeometry>
        </mxCell>
        <mxCell id="B4NFW2_He6Y6FCUZjmSe-10" value="LOGIC&lt;br&gt;HANDLER" style="whiteSpace=wrap;html=1;aspect=fixed;fillColor=#e6d0de;gradientColor=#d5739d;strokeColor=#996185;" vertex="1" parent="1">
          <mxGeometry x="344" y="150" width="140" height="140" as="geometry" />
        </mxCell>
        <mxCell id="B4NFW2_He6Y6FCUZjmSe-18" style="edgeStyle=orthogonalEdgeStyle;rounded=0;orthogonalLoop=1;jettySize=auto;html=1;" edge="1" parent="1" source="B4NFW2_He6Y6FCUZjmSe-11" target="B4NFW2_He6Y6FCUZjmSe-1">
          <mxGeometry relative="1" as="geometry" />
        </mxCell>
        <mxCell id="B4NFW2_He6Y6FCUZjmSe-24" value="REPO" style="edgeStyle=orthogonalEdgeStyle;rounded=0;orthogonalLoop=1;jettySize=auto;html=1;entryX=0;entryY=0.25;entryDx=0;entryDy=0;fillColor=#0050ef;strokeColor=#001DBC;" edge="1" parent="1" source="B4NFW2_He6Y6FCUZjmSe-11" target="B4NFW2_He6Y6FCUZjmSe-10">
          <mxGeometry x="0.3455" relative="1" as="geometry">
            <Array as="points">
              <mxPoint x="61" y="185" />
            </Array>
            <mxPoint as="offset" />
          </mxGeometry>
        </mxCell>
        <mxCell id="B4NFW2_He6Y6FCUZjmSe-11" value="HOME&lt;br&gt;PAGE&lt;br&gt;VM" style="shape=hexagon;perimeter=hexagonPerimeter2;whiteSpace=wrap;html=1;fixedSize=1;fillColor=#fa6800;fontColor=#000000;strokeColor=#C73500;" vertex="1" parent="1">
          <mxGeometry x="0.5" y="340" width="120" height="40" as="geometry" />
        </mxCell>
        <mxCell id="B4NFW2_He6Y6FCUZjmSe-23" style="edgeStyle=orthogonalEdgeStyle;rounded=0;orthogonalLoop=1;jettySize=auto;html=1;" edge="1" parent="1" source="B4NFW2_He6Y6FCUZjmSe-13" target="B4NFW2_He6Y6FCUZjmSe-2">
          <mxGeometry relative="1" as="geometry" />
        </mxCell>
        <mxCell id="B4NFW2_He6Y6FCUZjmSe-27" value="REPO" style="edgeStyle=orthogonalEdgeStyle;rounded=0;orthogonalLoop=1;jettySize=auto;html=1;entryX=1;entryY=0.25;entryDx=0;entryDy=0;fillColor=#0050ef;strokeColor=#001DBC;" edge="1" parent="1" source="B4NFW2_He6Y6FCUZjmSe-13" target="B4NFW2_He6Y6FCUZjmSe-10">
          <mxGeometry x="0.379" relative="1" as="geometry">
            <Array as="points">
              <mxPoint x="767" y="185" />
            </Array>
            <mxPoint as="offset" />
          </mxGeometry>
        </mxCell>
        <mxCell id="B4NFW2_He6Y6FCUZjmSe-13" value="ADDEDIT&lt;br&gt;PAGE&lt;br&gt;VM" style="shape=hexagon;perimeter=hexagonPerimeter2;whiteSpace=wrap;html=1;fixedSize=1;fillColor=#fa6800;fontColor=#000000;strokeColor=#C73500;" vertex="1" parent="1">
          <mxGeometry x="707" y="340" width="120" height="40" as="geometry" />
        </mxCell>
        <mxCell id="B4NFW2_He6Y6FCUZjmSe-19" style="edgeStyle=orthogonalEdgeStyle;rounded=0;orthogonalLoop=1;jettySize=auto;html=1;" edge="1" parent="1" source="B4NFW2_He6Y6FCUZjmSe-14" target="B4NFW2_He6Y6FCUZjmSe-3">
          <mxGeometry relative="1" as="geometry" />
        </mxCell>
        <mxCell id="B4NFW2_He6Y6FCUZjmSe-14" value="BNB&lt;br&gt;VM" style="shape=hexagon;perimeter=hexagonPerimeter2;whiteSpace=wrap;html=1;fixedSize=1;fillColor=#fa6800;fontColor=#000000;strokeColor=#C73500;" vertex="1" parent="1">
          <mxGeometry x="40" y="545" width="120" height="40" as="geometry" />
        </mxCell>
        <mxCell id="B4NFW2_He6Y6FCUZjmSe-21" style="edgeStyle=orthogonalEdgeStyle;rounded=0;orthogonalLoop=1;jettySize=auto;html=1;" edge="1" parent="1" source="B4NFW2_He6Y6FCUZjmSe-15" target="B4NFW2_He6Y6FCUZjmSe-5">
          <mxGeometry relative="1" as="geometry" />
        </mxCell>
        <mxCell id="B4NFW2_He6Y6FCUZjmSe-15" value="TFB&lt;br&gt;VM" style="shape=hexagon;perimeter=hexagonPerimeter2;whiteSpace=wrap;html=1;fixedSize=1;fillColor=#fa6800;fontColor=#000000;strokeColor=#C73500;" vertex="1" parent="1">
          <mxGeometry x="240" y="690" width="120" height="40" as="geometry" />
        </mxCell>
        <mxCell id="B4NFW2_He6Y6FCUZjmSe-20" style="edgeStyle=orthogonalEdgeStyle;rounded=0;orthogonalLoop=1;jettySize=auto;html=1;" edge="1" parent="1" source="B4NFW2_He6Y6FCUZjmSe-16" target="B4NFW2_He6Y6FCUZjmSe-6">
          <mxGeometry relative="1" as="geometry" />
        </mxCell>
        <mxCell id="B4NFW2_He6Y6FCUZjmSe-16" value="REMINDER&lt;br&gt;BOX&lt;br&gt;VM" style="shape=hexagon;perimeter=hexagonPerimeter2;whiteSpace=wrap;html=1;fixedSize=1;fillColor=#fa6800;fontColor=#000000;strokeColor=#C73500;" vertex="1" parent="1">
          <mxGeometry x="440" y="545" width="120" height="40" as="geometry" />
        </mxCell>
        <mxCell id="B4NFW2_He6Y6FCUZjmSe-22" style="edgeStyle=orthogonalEdgeStyle;rounded=0;orthogonalLoop=1;jettySize=auto;html=1;" edge="1" parent="1" source="B4NFW2_He6Y6FCUZjmSe-17" target="B4NFW2_He6Y6FCUZjmSe-7">
          <mxGeometry relative="1" as="geometry" />
        </mxCell>
        <mxCell id="B4NFW2_He6Y6FCUZjmSe-17" value="JOURNEY&lt;br&gt;BOX&lt;br&gt;VM" style="shape=hexagon;perimeter=hexagonPerimeter2;whiteSpace=wrap;html=1;fixedSize=1;fillColor=#fa6800;fontColor=#000000;strokeColor=#C73500;" vertex="1" parent="1">
          <mxGeometry x="640" y="690" width="120" height="40" as="geometry" />
        </mxCell>
      </root>
    </mxGraphModel>
  </diagram>
</mxfile>
